<svg class="svg-icon" style="width: 1em; height: 1em;vertical-align: middle;fill: currentColor;overflow: hidden;" viewBox="0 0 1024 1024" version="1.1" xmlns="http://www.w3.org/2000/svg"><path d="M512 819.2c-106.666667 0-200.96-54.613333-256-136.533333 1.28-85.333333 170.666667-132.266667 256-132.266667s254.72 46.933333 256 132.266667a308.565333 308.565333 0 0 1-256 136.533333M512 213.333333a128 128 0 0 1 128 128 128 128 0 0 1-128 128 128 128 0 0 1-128-128 128 128 0 0 1 128-128m0-128A426.666667 426.666667 0 0 0 85.333333 512a426.666667 426.666667 0 0 0 426.666667 426.666667 426.666667 426.666667 0 0 0 426.666667-426.666667c0-235.946667-192-426.666667-426.666667-426.666667z" fill="" /></svg>