<svg class="svg-icon" style="width: 1em; height: 1em;vertical-align: middle;fill: currentColor;overflow: hidden;" viewBox="0 0 1024 1024" version="1.1" xmlns="http://www.w3.org/2000/svg"><path d="M516.481546 64.12389c168.618555 0 307.726687 136.991761 307.726687 305.628746 0 29.501208-4.218408 54.772745-10.551139 80.070904 31.617579 18.98181 63.237205 67.435135 84.319005 128.585662 25.285872 86.391348 14.750092 168.608316-25.301231 181.241013-21.067464 6.316349-46.368695-6.316349-67.437183-31.617579-12.649079 23.184859-27.399171 46.369719-44.265634 67.464828 48.469707 12.63884 82.201609 42.140048 82.20161 75.870927 0 48.48609-67.451517 88.506695-149.653127 88.506695-61.119811 0-115.920201-23.181788-136.989713-54.802438-14.750092 2.113299-27.400195 4.233766-40.048251 4.233766-12.652151 0-25.286896-2.116371-40.052346-4.233766-21.067464 31.621674-75.869903 54.802438-136.989713 54.802438-82.201609 0-149.653127-40.020606-149.653127-88.506695 0-33.729854 33.73395-63.232086 82.203657-75.870927-18.966452-23.182812-33.717568-48.479946-46.369719-73.781176-23.184859 29.501208-50.585054 44.250276-73.767866 37.933927-40.038012-12.636793-50.585054-94.85376-25.286895-181.244084 21.070536-65.348457 59.005487-115.921225 92.738413-132.786664-6.332731-23.182812-10.546019-48.484042-10.546019-75.867855-0.004096-168.635961 139.115299-305.627722 307.722591-305.627722z" fill="" /></svg>